<svg width="256" height="256" viewBox="0 0 256 256" fill="none" xmlns="http://www.w3.org/2000/svg">
<g clip-path="url(#clip0_1257_94)">
<path d="M0 84.992C0 15.0011 15.0011 0 84.992 0H171.008C240.999 0 256 15.0011 256 84.992V171.008C256 240.999 240.999 256 171.008 256H84.992C15.0011 256 0 240.999 0 171.008V84.992Z" fill="#1E293B"/>
<path d="M128 175.571C120.739 175.578 113.59 173.785 107.192 170.353C100.794 166.92 95.346 161.956 91.3355 155.903L101.807 148.945C104.674 153.268 108.566 156.814 113.136 159.267C117.707 161.72 122.813 163.004 128 163.004C133.187 163.004 138.293 161.72 142.864 159.267C147.434 156.814 151.326 153.268 154.193 148.945L164.665 155.903C160.654 161.956 155.206 166.92 148.808 170.353C142.41 173.785 135.261 175.578 128 175.571ZM153.143 106.429C150.657 106.429 148.226 107.166 146.159 108.547C144.091 109.929 142.48 111.892 141.528 114.189C140.577 116.486 140.328 119.014 140.813 121.453C141.298 123.891 142.495 126.131 144.254 127.889C146.012 129.648 148.252 130.845 150.69 131.33C153.129 131.815 155.657 131.566 157.954 130.615C160.251 129.663 162.214 128.052 163.596 125.984C164.977 123.917 165.714 121.486 165.714 119C165.731 117.344 165.417 115.702 164.792 114.169C164.166 112.637 163.24 111.244 162.07 110.073C160.899 108.903 159.506 107.977 157.974 107.351C156.441 106.726 154.798 106.412 153.143 106.429ZM102.857 106.429C100.371 106.429 97.9403 107.166 95.8729 108.547C93.8055 109.929 92.1942 111.892 91.2427 114.189C90.2912 116.486 90.0423 119.014 90.5273 121.453C91.0124 123.891 92.2097 126.131 93.9679 127.889C95.726 129.648 97.966 130.845 100.405 131.33C102.843 131.815 105.371 131.566 107.668 130.615C109.965 129.663 111.929 128.052 113.31 125.984C114.691 123.917 115.429 121.486 115.429 119C115.445 117.344 115.132 115.702 114.506 114.169C113.88 112.637 112.955 111.244 111.784 110.073C110.613 108.903 109.221 107.977 107.688 107.351C106.155 106.726 104.513 106.412 102.857 106.429Z" fill="white"/>
<path d="M216 119V106.429H203.429V81.2857C203.42 74.62 200.769 68.2296 196.055 63.5162C191.342 58.8028 184.951 56.1512 178.286 56.1429H165.714V31H153.143V56.1429H102.857V31H90.2857V56.1429H77.7143C71.0485 56.1512 64.6582 58.8028 59.9448 63.5162C55.2314 68.2296 52.5797 74.62 52.5714 81.2857V106.429H40V119H52.5714V150.429H40V163H52.5714V181.857C52.5797 188.523 55.2314 194.913 59.9448 199.627C64.6582 204.34 71.0485 206.992 77.7143 207H178.286C184.951 206.992 191.342 204.34 196.055 199.627C200.769 194.913 203.42 188.523 203.429 181.857V163H216V150.429H203.429V119H216ZM190.857 181.857C190.854 185.19 189.528 188.386 187.171 190.743C184.814 193.1 181.619 194.425 178.286 194.429H77.7143C74.3812 194.425 71.1855 193.1 68.8286 190.743C66.4717 188.386 65.1462 185.19 65.1429 181.857V81.2857C65.1462 77.9526 66.4717 74.7569 68.8286 72.4C71.1855 70.0432 74.3812 68.7176 77.7143 68.7143H178.286C181.619 68.7176 184.814 70.0432 187.171 72.4C189.528 74.7569 190.854 77.9526 190.857 81.2857V181.857Z" fill="white"/>
</g>
<defs>
<clipPath id="clip0_1257_94">
<rect width="256" height="256" fill="white"/>
</clipPath>
</defs>
</svg>
