<svg width="256" height="256" viewBox="0 0 256 256" fill="none" xmlns="http://www.w3.org/2000/svg">
<g clip-path="url(#clip0_110_136)">
<rect width="256" height="256" rx="51.2" fill="#0C0A09"/>
<path d="M192 170.667C192 158.885 182.449 149.333 170.667 149.333C158.885 149.333 149.333 158.885 149.333 170.667V192C149.333 203.782 158.885 213.333 170.667 213.333C182.449 213.333 192 203.782 192 192V170.667Z" stroke="white" stroke-width="21.3333" stroke-linecap="round" stroke-linejoin="round"/>
<path d="M106.667 64C106.667 52.2179 97.1154 42.6666 85.3333 42.6666C73.5513 42.6666 64 52.2179 64 64V85.3333C64 97.1154 73.5513 106.667 85.3333 106.667C97.1154 106.667 106.667 97.1154 106.667 85.3333V64Z" stroke="white" stroke-width="21.3333" stroke-linecap="round" stroke-linejoin="round"/>
<path d="M64 213.333H106.667" stroke="#82BD69" stroke-width="21.3333" stroke-linecap="round" stroke-linejoin="round"/>
<path d="M149.333 106.667H192" stroke="#82BD69" stroke-width="21.3333" stroke-linecap="round" stroke-linejoin="round"/>
<path d="M64 149.333H85.3333V213.333" stroke="#82BD69" stroke-width="21.3333" stroke-linecap="round" stroke-linejoin="round"/>
<path d="M149.333 42.6666H170.667V106.667" stroke="#82BD69" stroke-width="21.3333" stroke-linecap="round" stroke-linejoin="round"/>
</g>
<defs>
<clipPath id="clip0_110_136">
<rect width="256" height="256" fill="white"/>
</clipPath>
</defs>
</svg>
