<svg width="304" height="304" viewBox="0 0 304 304" xmlns="http://www.w3.org/2000/svg"><path d="M44.1 224a5 5 0 1 1 0 2H0v-2h44.1zm160 48a5 5 0 1 1 0 2H82v-2h122.1zm57.8-46a5 5 0 1 1 0-2H304v2h-42.1zm0 16a5 5 0 1 1 0-2H304v2h-42.1zm6.2-114a5 5 0 1 1 0 2h-86.2a5 5 0 1 1 0-2h86.2zm-256-48a5 5 0 1 1 0 2H0v-2h12.1zm185.8 34a5 5 0 1 1 0-2h86.2a5 5 0 1 1 0 2h-86.2zM258 12.1a5 5 0 1 1-2 0V0h2v12.1zm-64 208a5 5 0 1 1-2 0v-54.2a5 5 0 1 1 2 0v54.2zm48-198.2a5 5 0 1 0-2 0V82h64v-2h-62V21.9zm16 16a5 5 0 1 0-2 0V66h48v-2h-46V37.9zm-128 96a5 5 0 1 0-2 0V210h16v10.1a5 5 0 1 0 2 0V208h-16v-74.1zm-5.9-21.9a5 5 0 1 1 0 2H114v48H85.9a5 5 0 1 1 0-2H112v-48h12.1zm-6.2 130a5 5 0 1 1 0-2H176v-74.1a5 5 0 1 1 2 0V242h-60.1zm-16-64a5 5 0 1 1 0-2H114v48h10.1a5 5 0 1 1 0 2H112v-48h-10.1zM66 284.1a5 5 0 1 1-2 0V274H50v30h-2v-32h18v12.1zM236.1 176a5 5 0 1 1 0 2H226v94h48v32h-2v-30h-48v-98h12.1zm25.8-30a5 5 0 1 1 0-2H274v44.1a5 5 0 1 1-2 0V146h-10.1zm-64 96a5 5 0 1 1 0-2H208v-80h16v-14h-42.1a5 5 0 1 1 0-2H226v18h-16v80h-12.1zm86.2-210a5 5 0 1 1 0 2H272V0h2v32h10.1zM98 101.9a5 5 0 1 0-2 0V144H53.9a5 5 0 1 0 0 2H98v-44.1zM53.9 34a5 5 0 1 1 0-2H80V0h2v34H53.9zm60.1 3.9a5 5 0 1 0-2 0V64H80v64H69.9a5 5 0 1 0 0 2H82V66h32V37.9zM101.9 82a5 5 0 1 1 0-2H128V37.9a5 5 0 1 1 2 0V82h-28.1zm16-64a5 5 0 1 1 0-2H146v44.1a5 5 0 1 1-2 0V18h-26.1zm102.2 270a5 5 0 1 1 0 2H98v14h-2v-16h124.1zM242 149.9a5 5 0 1 0-2 0V162h16v30h-16v66h48v46h2v-48h-48v-62h16v-34h-16v-10.1zM53.9 18a5 5 0 1 1 0-2H64V2H48V0h18v18H53.9zm112 32a5 5 0 1 1 0-2H192V0h50v2h-48v48h-28.1zm-48-48a5 5 0 0 1-9.8-2h2.07a3 3 0 1 0 5.66 0H178v34h-18V21.9a5 5 0 1 1 2 0V32h14V2h-58.1zm0 96a5 5 0 1 1 0-2H137l32-32h39V21.9a5 5 0 1 1 2 0V66h-40.172l-32 32H117.9zm28.1 90.1a5 5 0 1 1-2 0v-76.513L175.586 80H224V21.9a5 5 0 1 1 2 0V82h-49.586L146 112.414V188.1zm16 32a5 5 0 1 1-2 0v-99.513L184.586 96H300.1a5.004 5.004 0 0 1 3.9-3.9v2.07a3.004 3.004 0 0 0 0 5.66v2.07a5.004 5.004 0 0 1-3.9-3.9H185.414L162 121.414V220.1zm-144-64a5 5 0 1 1-2 0v-3.513l48-48V48h32V0h2v50H66v55.413l-48 48v2.687zM50 53.9a5 5 0 1 0-2 0v42.686l-48 48V210h28.1a5 5 0 1 0 0-2H2v-62.586l48-48V53.9zm-16 16a5 5 0 1 0-2 0v18.686l-32 32v2.828l34-34V69.9zM12.1 32a5 5 0 1 1 0 2H9.414L0 43.414v-2.828L8.586 32H12.1zm265.8 18a5 5 0 1 1 0-2h18.686L304 40.586v2.828L297.414 50H277.9zm-16 160a5 5 0 1 1 0-2H288v-71.413l16-16v2.827l-14 14V210h-28.1zm-208 32a5 5 0 1 1 0-2H64v-22.586L40.586 194H21.9a5 5 0 1 1 0-2h19.513L66 216.586V242H53.9zm150.2 14a5 5 0 1 1 0 2H96v-56.598L56.598 162H37.9a5 5 0 1 1 0-2h19.502L98 200.598V256h106.1zm-150.2 2a5 5 0 1 1 0-2H80v-46.586L48.586 178H21.9a5 5 0 1 1 0-2h27.513L82 208.586V258H53.9zM97 100a3 3 0 1 0 0-6 3 3 0 0 0 0 6zm0-16a3 3 0 1 0 0-6 3 3 0 0 0 0 6zm16 16a3 3 0 1 0 0-6 3 3 0 0 0 0 6zm16 16a3 3 0 1 0 0-6 3 3 0 0 0 0 6zm0 16a3 3 0 1 0 0-6 3 3 0 0 0 0 6zm-48 32a3 3 0 1 0 0-6 3 3 0 0 0 0 6zm16 16a3 3 0 1 0 0-6 3 3 0 0 0 0 6zm32 48a3 3 0 1 0 0-6 3 3 0 0 0 0 6zm-16 16a3 3 0 1 0 0-6 3 3 0 0 0 0 6zm32-16a3 3 0 1 0 0-6 3 3 0 0 0 0 6zm0-32a3 3 0 1 0 0-6 3 3 0 0 0 0 6zm16 32a3 3 0 1 0 0-6 3 3 0 0 0 0 6zm32 16a3 3 0 1 0 0-6 3 3 0 0 0 0 6zm0-16a3 3 0 1 0 0-6 3 3 0 0 0 0 6zm-16-64a3 3 0 1 0 0-6 3 3 0 0 0 0 6zm16 0a3 3 0 1 0 0-6 3 3 0 0 0 0 6zm16 96a3 3 0 1 0 0-6 3 3 0 0 0 0 6zm0 16a3 3 0 1 0 0-6 3 3 0 0 0 0 6zm16 16a3 3 0 1 0 0-6 3 3 0 0 0 0 6zm16-144a3 3 0 1 0 0-6 3 3 0 0 0 0 6zm0 32a3 3 0 1 0 0-6 3 3 0 0 0 0 6zm16-32a3 3 0 1 0 0-6 3 3 0 0 0 0 6zm16-16a3 3 0 1 0 0-6 3 3 0 0 0 0 6zm-96 0a3 3 0 1 0 0-6 3 3 0 0 0 0 6zm0 16a3 3 0 1 0 0-6 3 3 0 0 0 0 6zm16-32a3 3 0 1 0 0-6 3 3 0 0 0 0 6zm96 0a3 3 0 1 0 0-6 3 3 0 0 0 0 6zm-16-64a3 3 0 1 0 0-6 3 3 0 0 0 0 6zm16-16a3 3 0 1 0 0-6 3 3 0 0 0 0 6zm-32 0a3 3 0 1 0 0-6 3 3 0 0 0 0 6zm0-16a3 3 0 1 0 0-6 3 3 0 0 0 0 6zm-16 0a3 3 0 1 0 0-6 3 3 0 0 0 0 6zm-16 0a3 3 0 1 0 0-6 3 3 0 0 0 0 6zm-16 0a3 3 0 1 0 0-6 3 3 0 0 0 0 6zM49 36a3 3 0 1 0 0-6 3 3 0 0 0 0 6zm-32 0a3 3 0 1 0 0-6 3 3 0 0 0 0 6zm32 16a3 3 0 1 0 0-6 3 3 0 0 0 0 6zM33 68a3 3 0 1 0 0-6 3 3 0 0 0 0 6zm16-48a3 3 0 1 0 0-6 3 3 0 0 0 0 6zm0 240a3 3 0 1 0 0-6 3 3 0 0 0 0 6zm16 32a3 3 0 1 0 0-6 3 3 0 0 0 0 6zm-16-64a3 3 0 1 0 0-6 3 3 0 0 0 0 6zm0 16a3 3 0 1 0 0-6 3 3 0 0 0 0 6zm-16-32a3 3 0 1 0 0-6 3 3 0 0 0 0 6zm80-176a3 3 0 1 0 0-6 3 3 0 0 0 0 6zm16 0a3 3 0 1 0 0-6 3 3 0 0 0 0 6zm-16-16a3 3 0 1 0 0-6 3 3 0 0 0 0 6zm32 48a3 3 0 1 0 0-6 3 3 0 0 0 0 6zm16-16a3 3 0 1 0 0-6 3 3 0 0 0 0 6zm0-32a3 3 0 1 0 0-6 3 3 0 0 0 0 6zm112 176a3 3 0 1 0 0-6 3 3 0 0 0 0 6zm-16 16a3 3 0 1 0 0-6 3 3 0 0 0 0 6zm0 16a3 3 0 1 0 0-6 3 3 0 0 0 0 6zm0 16a3 3 0 1 0 0-6 3 3 0 0 0 0 6zM17 180a3 3 0 1 0 0-6 3 3 0 0 0 0 6zm0 16a3 3 0 1 0 0-6 3 3 0 0 0 0 6zm0-32a3 3 0 1 0 0-6 3 3 0 0 0 0 6zm16 0a3 3 0 1 0 0-6 3 3 0 0 0 0 6zM17 84a3 3 0 1 0 0-6 3 3 0 0 0 0 6zm32 64a3 3 0 1 0 0-6 3 3 0 0 0 0 6zm16-16a3 3 0 1 0 0-6 3 3 0 0 0 0 6zM34 39.793V0h-2v40.586L8.586 64H0v2h9.413L34 41.414v-1.62zM2 300.1V258h14v46h2v-48H0v46.17A3.004 3.004 0 0 1 3.83 304H5.9a5.004 5.004 0 0 0-3.9-3.9zM34 241v63h-2v-62H0v-2h34v1zM17 18h1V0h-2v16H0v2h17zm273-2V0h-2v18h16v-2h-14zm-32 273v15h-2v-14h-14v14h-2v-16h18v1zM0 92.1A5.002 5.002 0 0 1 6 97a5.002 5.002 0 0 1-6 4.9v-2.07a3 3 0 1 0 0-5.66V92.1zM80 272h2v32h-2v-32zm37.9 32a5 5 0 0 0-9.8 0h2.07a3.004 3.004 0 0 1 5.66 0h2.07zM5.9 0A5.002 5.002 0 0 1 0 5.9V3.83A3 3 0 0 0 3.83 0H5.9zm294.2 0a5 5 0 0 0 3.9 5.9V3.83A3.004 3.004 0 0 1 302.17 0h-2.07zm3.9 300.1a5.004 5.004 0 0 0-3.9 3.9h2.07a3.016 3.016 0 0 1 1.83-1.83v-2.07z" fill="#45404b" fill-opacity=".15" fill-rule="evenodd"/></svg>