<?xml version="1.0" encoding="UTF-8" standalone="no"?>
<!-- Generated by IcoMoon.io -->

<svg
   xmlns:dc="http://purl.org/dc/elements/1.1/"
   xmlns:cc="http://creativecommons.org/ns#"
   xmlns:rdf="http://www.w3.org/1999/02/22-rdf-syntax-ns#"
   xmlns:svg="http://www.w3.org/2000/svg"
   xmlns="http://www.w3.org/2000/svg"
   xmlns:sodipodi="http://sodipodi.sourceforge.net/DTD/sodipodi-0.dtd"
   xmlns:inkscape="http://www.inkscape.org/namespaces/inkscape"
   version="1.1"
   width="56.644569"
   height="32"
   viewBox="0 0 56.644569 32"
   id="svg2"
   inkscape:version="0.91 r13725"
   sodipodi:docname="quickrun.svg">
  <metadata
     id="metadata14">
    <rdf:RDF>
      <cc:Work
         rdf:about="">
        <dc:format>image/svg+xml</dc:format>
        <dc:type
           rdf:resource="http://purl.org/dc/dcmitype/StillImage" />
        <dc:title></dc:title>
      </cc:Work>
    </rdf:RDF>
  </metadata>
  <defs
     id="defs12" />
  <sodipodi:namedview
     pagecolor="#ffffff"
     bordercolor="#666666"
     borderopacity="1"
     objecttolerance="10"
     gridtolerance="10"
     guidetolerance="10"
     inkscape:pageopacity="0"
     inkscape:pageshadow="2"
     inkscape:window-width="1770"
     inkscape:window-height="1047"
     id="namedview10"
     showgrid="false"
     inkscape:zoom="7.375"
     inkscape:cx="-14.372381"
     inkscape:cy="16.542373"
     inkscape:window-x="150"
     inkscape:window-y="0"
     inkscape:window-maximized="1"
     inkscape:current-layer="svg2"
     fit-margin-top="0"
     fit-margin-left="0"
     fit-margin-right="0"
     fit-margin-bottom="0" />
  <path
     id="path4144"
     d="m 36.644569,3.0508475 20,12.0000005 -20,12 z"
     inkscape:connector-curvature="0"
     style="fill:#000000;fill-opacity:1" />
  <g
     id="g4166"
     transform="matrix(0.73728814,0,0,0.73728814,4.2042585,4.2033898)">
    <path
       id="path4156"
       d="M 27.802,5.197 C 24.877,2.003 20.672,0 15.999,0 c -8.837,0 -16,7.163 -16,16 l 3,0 c 0,-7.18 5.82,-13 13,-13 3.844,0 7.298,1.669 9.678,4.322 L 20.999,12 l 11,0 0,-11 -4.198,4.197 z"
       inkscape:connector-curvature="0" />
    <path
       id="path4158"
       d="M 29,16 C 29,23.18 23.18,29 16,29 12.156,29 8.702,27.331 6.322,24.678 L 11,20 0,20 0,31 4.197,26.803 C 7.122,29.997 11.327,32 16,32 24.837,32 32,24.837 32,16 l -3,0 z"
       inkscape:connector-curvature="0" />
  </g>
</svg>
